<!DOCTYPE svg PUBLIC "-//W3C//DTD SVG 1.1//EN" "http://www.w3.org/Graphics/SVG/1.1/DTD/svg11.dtd">
<!-- Uploaded to: SVG Repo, www.svgrepo.com, Transformed by: SVG Repo Mixer Tools -->
<svg height="64px" width="64px" version="1.1" id="_x32_" xmlns="http://www.w3.org/2000/svg" xmlns:xlink="http://www.w3.org/1999/xlink" viewBox="0 0 512 512" xml:space="preserve" fill="#000000">
<g id="SVGRepo_bgCarrier" stroke-width="0"/>
<g id="SVGRepo_tracerCarrier" stroke-linecap="round" stroke-linejoin="round"/>
<g id="SVGRepo_iconCarrier"> <style type="text/css"> .st0{fill:#ffffff;} </style> <g> <path class="st0" d="M501.679,371.791c-15.06,8.968-33.148,13.868-51.452,16.521c-18.393,2.624-37.306,3.028-56.093,1.935 c-37.574-2.32-75.229-10.249-109.551-24.413c-9.093-3.816-17.936-8.18-26.232-13.099c12.749,2.231,25.345,3.109,38.05,3.369 c21.098,0.126,42.134-2.839,62.319-8.645c40.226-11.665,77.675-34.439,104.023-67.901c13.063-16.691,23.123-36.338,27.236-57.813 c4.192-21.403,1.505-44.356-7.633-64.057l-17.829,7.875c7.024,16.449,8.619,34.645,4.758,51.989 c-3.808,17.363-12.624,33.704-24.288,47.769c-23.464,28.266-57.356,47.806-93.139,57.034c-5.026,1.308-10.114,2.348-15.212,3.243 c3.208-2.239,6.424-4.443,9.435-6.97c17.362-14.639,28.57-36.912,30.245-59.202c1.891-22.343-3.914-44.06-13.886-62.704 c-10.008-18.734-24.208-34.752-40.773-47.312c-33.264-25.373-75.632-35.747-115.84-33.498l0.735,19.476 c36.597-1.003,73.348,9.514,101.129,31.966c13.833,11.118,25.354,25.023,33.086,40.548c7.75,15.481,11.531,32.754,9.658,48.925 c-1.586,14.022-7.956,26.537-17.668,36.213c-0.359-3.082-0.985-6.074-1.891-8.744c-2.356-6.827-5.734-12.488-9.415-17.389 c-7.168-9.255-14.442-16.897-22.604-24.396c-16.18-14.765-34.51-26.823-53.942-36.204c-38.918-18.734-82.181-27.128-124.916-24.96 C77.361,183.508,34.6,196.857,0,222.803l11.477,15.732c31.616-22.416,70.561-33.525,109.408-34.457 c38.891-0.95,78.14,7.839,112.418,25.516c6.97,3.602,13.671,7.668,20.166,12.005c-18.339-1.792-36.123-1.774-54.3-0.116 c-37.619,3.485-76.135,15.947-106.084,41.382c-30.075,25.05-48.925,62.973-50.816,101.64l19.432,1.389 c2.732-33.525,19.728-64.98,45.861-85.469c26.044-20.803,59.721-30.908,93.72-33.014c7.499-0.484,15.168-0.573,22.801-0.385 c-6.773,2.284-13.412,4.963-19.647,8.385c-16.35,9.102-31.142,21.269-41.839,37.816c-10.714,16.359-15.382,37.1-12.775,56.334 c2.454,19.307,10.983,36.813,22.262,51.264c22.828,29.01,56.334,47.134,91.284,53.593l3.826-19.11 c-30.542-6.593-59.049-23.715-76.959-48.209c-8.896-12.139-14.898-26.178-16.171-40.253c-1.362-14.048,2.276-27.844,10.268-39.312 c2.186-3.207,4.757-6.209,7.552-9.085c1.174,5.904,3.431,11.02,5.922,15.517c6.299,10.635,14.111,18.555,22.506,25.57 c16.86,13.761,35.576,23.033,54.588,30.442c38.165,14.478,78.051,21.591,118.231,22.998c20.087,0.6,40.307-0.377,60.402-3.818 c20.023-3.521,40.217-9.326,58.467-20.838L501.679,371.791z"/> <path class="st0" d="M81.115,154.176c7.713,0,13.976-6.253,13.976-13.976c0-7.705-6.262-13.967-13.976-13.967 c-7.704,0-13.968,6.262-13.968,13.967C67.148,147.923,73.411,154.176,81.115,154.176z"/> <path class="st0" d="M266.997,57.813c5.591,0,10.115-4.534,10.115-10.106c0-5.591-4.524-10.124-10.115-10.124 c-5.59,0-10.114,4.533-10.114,10.124C256.883,53.279,261.406,57.813,266.997,57.813z"/> <path class="st0" d="M410.055,188.865c5.582,0,10.114-4.524,10.114-10.114c0-5.582-4.533-10.114-10.114-10.114 c-5.6,0-10.124,4.533-10.124,10.114C399.932,184.342,404.455,188.865,410.055,188.865z"/> <path class="st0" d="M473.431,320.097c0,4.256,3.458,7.714,7.714,7.714c4.256,0,7.704-3.458,7.704-7.714 c0-4.255-3.448-7.704-7.704-7.704C476.889,312.393,473.431,315.842,473.431,320.097z"/> <path class="st0" d="M352.654,443.607c-5.581,0-10.124,4.534-10.124,10.123c0,5.582,4.542,10.116,10.124,10.116 c5.591,0,10.116-4.534,10.116-10.116C362.77,448.14,358.245,443.607,352.654,443.607z"/> <path class="st0" d="M117.095,377.91c-6.379,0-11.567,5.178-11.567,11.566c0,6.379,5.188,11.558,11.567,11.558 c6.388,0,11.566-5.179,11.566-11.558C128.66,383.088,123.483,377.91,117.095,377.91z"/> <path class="st0" d="M89.68,243.005c4.256,0,7.714-3.449,7.714-7.704c0-4.256-3.458-7.715-7.714-7.715 c-4.256,0-7.704,3.459-7.704,7.715C81.976,239.556,85.424,243.005,89.68,243.005z"/> <path class="st0" d="M266.997,171.055c0-4.255-3.449-7.714-7.714-7.714c-4.256,0-7.704,3.459-7.704,7.714 c0,4.256,3.449,7.705,7.704,7.705C263.548,178.76,266.997,175.31,266.997,171.055z"/> </g> </g>
</svg>