<!DOCTYPE svg PUBLIC "-//W3C//DTD SVG 1.1//EN" "http://www.w3.org/Graphics/SVG/1.1/DTD/svg11.dtd">
<!-- Uploaded to: SVG Repo, www.svgrepo.com, Transformed by: SVG Repo Mixer Tools -->
<svg version="1.0" id="Layer_1" xmlns="http://www.w3.org/2000/svg" xmlns:xlink="http://www.w3.org/1999/xlink" width="64px" height="64px" viewBox="0 0 64.00 64.00" enable-background="new 0 0 64 64" xml:space="preserve" fill="#000000" stroke="#000000" stroke-width="0.00064">
<g id="SVGRepo_bgCarrier" stroke-width="0"/>
<g id="SVGRepo_tracerCarrier" stroke-linecap="round" stroke-linejoin="round" stroke="#CCCCCC" stroke-width="0.256"/>
<g id="SVGRepo_iconCarrier"> <g> <path fill="#000000" d="M60,12h-8c0-6.633-5.371-12-12-12c-3.086,0-5.875,1.195-8,3.109C29.875,1.195,27.086,0,24,0 c-6.629,0-12,5.367-12,12H4c-2.211,0-4,1.789-4,4v16c0,2.211,1.789,4,4,4v24c0,2.211,1.789,4,4,4h48c2.211,0,4-1.789,4-4V36 c2.211,0,4-1.789,4-4V16C64,13.789,62.211,12,60,12z M40,8c2.211,0,4,1.789,4,4h-8C36,9.789,37.789,8,40,8z M24,8 c2.211,0,4,1.789,4,4h-8C20,9.789,21.789,8,24,8z M28,56H12V36h16V56z M28,28H8v-8h20V28z M52,56H36V36h16V56z M56,28H36v-8h20V28z "/> <g> <rect x="12" y="36" fill="#F76D57" width="16" height="20"/> <rect x="8" y="20" fill="#F76D57" width="20" height="8"/> <rect x="36" y="36" fill="#F76D57" width="16" height="20"/> <rect x="36" y="20" fill="#F76D57" width="20" height="8"/> </g> </g> </g>
</svg>